<?xml version="1.0" encoding="iso-8859-1"?>
<!-- Generator: Adobe Illustrator 19.0.0, SVG Export Plug-In . SVG Version: 6.00 Build 0)  -->
<svg version="1.1" id="Layer_1" xmlns="http://www.w3.org/2000/svg" xmlns:xlink="http://www.w3.org/1999/xlink" x="0px" y="0px"
	 viewBox="0 0 495 495" style="enable-background:new 0 0 495 495;" xml:space="preserve">
<g>
	<polygon style="fill:#006DF0;" points="267.5,174.203 227.5,174.203 227.5,227.5 174.203,227.5 174.203,267.5 227.5,267.5 
		227.5,320.797 267.5,320.797 267.5,267.5 320.797,267.5 320.797,227.5 267.5,227.5 	"/>
	<polygon style="fill:#004FAC;" points="324.317,0 324.317,40 455,40 455,171.667 495,171.667 495,0 	"/>
	<polygon style="fill:#004FAC;" points="455,455 324.317,455 324.317,495 495,495 495,323.333 455,323.333 	"/>
	<polygon style="fill:#006DF0;" points="40,323.333 0,323.333 0,495 172.65,495 172.65,455 40,455 	"/>
	<polygon style="fill:#006DF0;" points="0,171.667 40,171.667 40,40 172.65,40 172.65,0 0,0 	"/>
</g>
<g>
</g>
<g>
</g>
<g>
</g>
<g>
</g>
<g>
</g>
<g>
</g>
<g>
</g>
<g>
</g>
<g>
</g>
<g>
</g>
<g>
</g>
<g>
</g>
<g>
</g>
<g>
</g>
<g>
</g>
</svg>
