<?xml version="1.0" encoding="iso-8859-1"?>
<!-- Generator: Adobe Illustrator 18.0.0, SVG Export Plug-In . SVG Version: 6.00 Build 0)  -->
<!DOCTYPE svg PUBLIC "-//W3C//DTD SVG 1.1//EN" "http://www.w3.org/Graphics/SVG/1.1/DTD/svg11.dtd">
<svg version="1.1" id="Capa_1" xmlns="http://www.w3.org/2000/svg" xmlns:xlink="http://www.w3.org/1999/xlink" x="0px" y="0px"
	 viewBox="0 0 512 512" style="enable-background:new 0 0 512 512;" xml:space="preserve">
<g>
	<path style="fill:#3CB44A;" d="M384,512H128c-8.837,0-16-7.163-16-16V232c0-8.837,7.163-16,16-16h256c8.837,0,16,7.163,16,16v264
		C400,504.837,392.837,512,384,512z"/>
	<path style="fill:#0E9247;" d="M384,248v240c0,4.418-3.582,8-8,8H128.384c-10.249,0-10.896,15.832-0.649,15.998
		c0.088,0.001,0.176,0.002,0.265,0.002h224h32c8.837,0,16-7.163,16-16V232h0C391.163,232,384,239.163,384,248z"/>
	<path style="fill:#FFFFFF;" d="M336.032,376c-4.418,0-8-3.582-8-8c0-4.418,3.582-8,8-8h7.58
		c-3.809-42.21-37.391-75.787-79.596-79.596v7.58c0,4.418-3.582,8-8,8c-4.418,0-8-3.582-8-8v-7.58
		c-42.211,3.808-75.788,37.385-79.596,79.596H176c4.418,0,8,3.582,8,8c0,4.418-3.582,8-8,8h-7.58
		c3.808,42.21,37.385,75.788,79.596,79.596v-7.581c0-4.418,3.582-8,8-8c4.418,0,8,3.582,8,8v7.581
		c42.205-3.809,75.787-37.386,79.596-79.596H336.032z"/>
	<g>
		<path style="fill:#D2453C;" d="M244.698,379.325c-6.248-6.248-6.248-16.379,0-22.627c0,0,50.321-40.189,56.569-33.941
			c6.248,6.248-33.941,56.569-33.941,56.569C261.077,385.573,250.946,385.573,244.698,379.325z"/>
	</g>
	<path style="fill:#B1C3D0;" d="M432,16c0-8.836-7.165-16-16.001-16H96.001C87.165,0,80,7.164,80,16s7.165,16,16.001,16H96
		c0,70.692,57.308,128,128,128h64c70.692,0,128-57.308,128-128h-0.001C424.835,32,432,24.836,432,16z"/>
	<path style="fill:#8EADBE;" d="M415.492,42.069C415.785,38.746,416,35.401,416,32h-32H96l0,0.163
		C96.007,40.912,103.102,48,111.85,48l255.291,0c8.634,0,14.75,8.221,12.561,16.573c-0.654,2.494-1.381,4.957-2.178,7.389
		c-14.238,43.413-55.749,72.039-101.438,72.038L240,144c-8.837,0-16,7.163-16,16v0h32h32c3.616,0,6.582-0.167,9.168-0.463
		C360.226,155.056,410.579,105.005,415.492,42.069z"/>
	<rect x="232.016" y="160" style="fill:#7B9BB1;" width="48" height="56"/>
</g>
<g>
</g>
<g>
</g>
<g>
</g>
<g>
</g>
<g>
</g>
<g>
</g>
<g>
</g>
<g>
</g>
<g>
</g>
<g>
</g>
<g>
</g>
<g>
</g>
<g>
</g>
<g>
</g>
<g>
</g>
</svg>
